<svg width="65" height="65" viewBox="0 0 65 65" fill="none" xmlns="http://www.w3.org/2000/svg">
<path d="M52 0H13C5.8203 0 0 5.8203 0 13V52C0 59.1797 5.8203 65 13 65H52C59.1797 65 65 59.1797 65 52V13C65 5.8203 59.1797 0 52 0Z" fill="#494949"/>
<path d="M23.27 44.4277C21.6017 44.4277 20.1067 44.1569 18.785 43.6152C17.4633 43.0735 16.4017 42.2719 15.6 41.2102C14.82 40.1485 14.4083 38.8702 14.365 37.3752H20.28C20.3667 38.2202 20.6592 38.8702 21.1575 39.3252C21.6558 39.7585 22.3058 39.9752 23.1075 39.9752C23.9308 39.9752 24.5808 39.791 25.0575 39.4227C25.5342 39.0327 25.7725 38.5019 25.7725 37.8302C25.7725 37.2669 25.5775 36.801 25.1875 36.4327C24.8192 36.0644 24.3533 35.761 23.79 35.5227C23.2483 35.2844 22.4683 35.0135 21.45 34.7102C19.9767 34.2552 18.7742 33.8002 17.8425 33.3452C16.9108 32.8902 16.1092 32.2185 15.4375 31.3302C14.7658 30.4419 14.43 29.2827 14.43 27.8527C14.43 25.7294 15.1992 24.0719 16.7375 22.8802C18.2758 21.6669 20.28 21.0602 22.75 21.0602C25.2633 21.0602 27.2892 21.6669 28.8275 22.8802C30.3658 24.0719 31.1892 25.7402 31.2975 27.8852H25.285C25.2417 27.1485 24.9708 26.5744 24.4725 26.1627C23.9742 25.7294 23.335 25.5127 22.555 25.5127C21.8833 25.5127 21.3417 25.6969 20.93 26.0652C20.5183 26.4119 20.3125 26.921 20.3125 27.5927C20.3125 28.3294 20.6592 28.9035 21.3525 29.3152C22.0458 29.7269 23.1292 30.171 24.6025 30.6477C26.0758 31.146 27.2675 31.6227 28.1775 32.0777C29.1092 32.5327 29.9108 33.1935 30.5825 34.0602C31.2542 34.9269 31.59 36.0427 31.59 37.4077C31.59 38.7077 31.2542 39.8885 30.5825 40.9502C29.9325 42.0119 28.9792 42.8569 27.7225 43.4852C26.4658 44.1135 24.9817 44.4277 23.27 44.4277ZM51.4227 21.3852V25.8377H45.3777V44.2002H39.8202V25.8377H33.7752V21.3852H51.4227Z" fill="white"/>
</svg>
