<?xml version="1.0" encoding="UTF-8" standalone="no"?>
<!DOCTYPE svg PUBLIC "-//W3C//DTD SVG 1.1//EN" "http://www.w3.org/Graphics/SVG/1.1/DTD/svg11.dtd">
<svg width="100%" height="100%" viewBox="0 0 65 65" version="1.1" xmlns="http://www.w3.org/2000/svg" xmlns:xlink="http://www.w3.org/1999/xlink" xml:space="preserve" xmlns:serif="http://www.serif.com/" style="fill-rule:evenodd;clip-rule:evenodd;stroke-linejoin:round;stroke-miterlimit:2;">
    <path d="M52,0L13,0C5.82,0 0,5.82 0,13L0,52C0,59.18 5.82,65 13,65L52,65C59.18,65 65,59.18 65,52L65,13C65,5.82 59.18,0 52,0Z" style="fill:rgb(200,216,255);fill-opacity:0.4;fill-rule:nonzero;"/>
    <path d="M23.27,44.428C21.602,44.428 20.107,44.157 18.785,43.615C17.463,43.074 16.402,42.272 15.6,41.21C14.82,40.149 14.408,38.87 14.365,37.375L20.28,37.375C20.367,38.22 20.659,38.87 21.158,39.325C21.656,39.759 22.306,39.975 23.108,39.975C23.931,39.975 24.581,39.791 25.058,39.423C25.534,39.033 25.773,38.502 25.773,37.83C25.773,37.267 25.578,36.801 25.188,36.433C24.819,36.064 24.353,35.761 23.79,35.523C23.248,35.284 22.468,35.014 21.45,34.71C19.977,34.255 18.774,33.8 17.843,33.345C16.911,32.89 16.109,32.218 15.438,31.33C14.766,30.442 14.43,29.283 14.43,27.853C14.43,25.729 15.199,24.072 16.738,22.88C18.276,21.667 20.28,21.06 22.75,21.06C25.263,21.06 27.289,21.667 28.828,22.88C30.366,24.072 31.189,25.74 31.298,27.885L25.285,27.885C25.242,27.148 24.971,26.574 24.473,26.163C23.974,25.729 23.335,25.513 22.555,25.513C21.883,25.513 21.342,25.697 20.93,26.065C20.518,26.412 20.313,26.921 20.313,27.593C20.313,28.329 20.659,28.904 21.353,29.315C22.046,29.727 23.129,30.171 24.603,30.648C26.076,31.146 27.267,31.623 28.177,32.078C29.109,32.533 29.911,33.194 30.583,34.06C31.254,34.927 31.59,36.043 31.59,37.408C31.59,38.708 31.254,39.889 30.583,40.95C29.933,42.012 28.979,42.857 27.723,43.485C26.466,44.114 24.982,44.428 23.27,44.428ZM51.423,21.385L51.423,25.838L45.378,25.838L45.378,44.2L39.82,44.2L39.82,25.838L33.775,25.838L33.775,21.385L51.423,21.385Z" style="fill:white;fill-rule:nonzero;"/>
</svg>
